# xmcd
#
# Track frame offsets: 
#        150
#        13690
#        27056
#        41516
#        55629
#        69995
#        84728
#        98036
#        112854
#        126579
#        140073
#        154303
#        169177
#        184062
#        199297
#        213360
#        227383
#        241253
#        255537
#        269989
#        283245
#        296579
#
# Disc length: 4153 seconds
#
# Revision: 3
# Processed by: cddbd v1.5.2PL0 Copyright (c) Steve Scherf et al.
# Submitted via: ExactAudioCopy v1.3
#
DISCID=45103716
DTITLE=Billie Holiday - Gold [CD1]
DYEAR=2005
DGENRE=Jazz
TTITLE0=Miss Brown To You
TTITLE1=What A Little Moonlight Can Do
TTITLE2=I Cried For You
TTITLE3=Mean To Me
TTITLE4=Strange Fruit
TTITLE5=Fine And Mellow
TTITLE6=God Bless The Child
TTITLE7=Trav'lin' Light
TTITLE8=My Old Flame
TTITLE9=I'll Get By (As Long As I Have You)
TTITLE10=Billie's Blues
TTITLE11=He's Funny That Way
TTITLE12=Lover Man (Oh, Where Can You Be?)
TTITLE13=Don't Explain
TTITLE14=Good Morning Heartache
TTITLE15=No Good Man
TTITLE16=The Blues Are Brewin'
TTITLE17=Solitude
TTITLE18=Easy Living
TTITLE19=I Love You Porgy
TTITLE20=My Man (Mon Homme)
TTITLE21='Tain't Nobody's Business If I Do
EXTD=YEAR: 2005
EXTT0=
EXTT1=
EXTT2=
EXTT3=
EXTT4=
EXTT5=
EXTT6=
EXTT7=
EXTT8=
EXTT9=
EXTT10=
EXTT11=
EXTT12=
EXTT13=
EXTT14=
EXTT15=
EXTT16=
EXTT17=
EXTT18=
EXTT19=
EXTT20=
EXTT21=
PLAYORDER=
